<svg width="44" height="50" viewBox="0 0 44 50" xmlns="http://www.w3.org/2000/svg" xmlns:xlink="http://www.w3.org/1999/xlink"><title>Group 6</title><defs><path id="a" d="M0 0h50v50H0z"/></defs><g transform="translate(-3)" fill="none" fill-rule="evenodd"><mask id="b" fill="#fff"><use xlink:href="#a"/></mask><g mask="url(#b)" stroke="#0D9C9C" stroke-width="2" stroke-linejoin="round"><path d="M11.355 32.355l4.258 1.935 1.161 1.936-2.322.774-4.258-.774s-1.24 0-.775-2.323c.387-1.935.93-1.897 1.936-1.548zm-3.097-5.42s0-.774-.774-.774S4 26.161 4 27.71c0 1.548 4.258 1.548 4.258 1.548v-2.323zM6.71 44.742v3.097S6.71 49 7.87 49h3.484s1.161 0 1.161-1.161v-2.323m25.937-13.161l-4.258 1.935-1.162 1.936 2.323.774 4.258-.774s1.239 0 .774-2.323c-.387-1.935-.929-1.897-1.935-1.548zm3.096-5.42s0-.774.775-.774c.774 0 3.483 0 3.483 1.549 0 1.548-4.258 1.548-4.258 1.548v-2.323zm1.549 17.807v3.097s0 1.161-1.162 1.161h-3.483s-1.162 0-1.162-1.161v-2.323"/><path d="M18.013 20.2c-1.471.194-2.98.58-3.523 1.277-1.355 1.82-4.684 7.781-4.684 7.781s-2.322 0-2.322 1.936c0 0-1.549.387-1.549 1.548v9.677s-.038 3.097 2.71 3.097h32.516c2.749 0 2.71-3.097 2.71-3.097v-9.677c0-1.161-1.548-1.548-1.548-1.548 0-1.936-2.323-1.936-2.323-1.936s-3.252-5.923-4.606-7.703c-.542-.736-2.052-1.123-3.562-1.316"/><path d="M35.742 11.839c0-6-4.839-10.839-10.839-10.839S14.065 5.839 14.065 11.839c0 5.11 3.56 9.406 8.322 10.529l2.516 3.793 2.516-3.793c4.762-1.123 8.323-5.42 8.323-10.53z"/><path d="M24.903 18.42c-5.806 0-5.806-7.743-5.806-7.743v-2.71l5.806-2.322 5.807 2.323v2.71s0 7.741-5.807 7.741zm0-12.388v12-12z" stroke-linecap="square"/></g></g></svg>