<?xml version="1.0" encoding="UTF-8"?>
<svg width="44px" height="50px" viewBox="0 0 44 50" version="1.1" xmlns="http://www.w3.org/2000/svg" xmlns:xlink="http://www.w3.org/1999/xlink">
    <!-- Generator: Sketch 47.1 (45422) - http://www.bohemiancoding.com/sketch -->
    <title>Group 6</title>
    <desc>Created with Sketch.</desc>
    <defs>
        <rect id="path-1" x="0" y="0" width="50" height="50"></rect>
    </defs>
    <g id="Welcome" stroke="none" stroke-width="1" fill="none" fill-rule="evenodd">
        <g id="V.2" transform="translate(-818.000000, -2090.000000)">
            <g id="det" transform="translate(0.000000, 1691.000000)">
                <g id="Feature-1-Copy" transform="translate(815.000000, 399.000000)">
                    <g id="Group-6">
                        <mask id="mask-2" fill="white">
                            <use xlink:href="#path-1"></use>
                        </mask>
                        <g id="Rectangle"></g>
                        <g id="Group" mask="url(#mask-2)" stroke="#0D9C9C" stroke-width="2" stroke-linejoin="round">
                            <g transform="translate(4.000000, 1.000000)" id="Shape">
                                <path d="M7.35483871,31.3548387 L11.6129032,33.2903226 L12.7741935,35.2258065 L10.4516129,36 L6.19354839,35.2258065 C6.19354839,35.2258065 4.95483871,35.2258065 5.41935484,32.9032258 C5.80645161,30.9677419 6.3483871,31.0064516 7.35483871,31.3548387 Z"></path>
                                <path d="M4.25806452,25.9354839 C4.25806452,25.9354839 4.25806452,25.1612903 3.48387097,25.1612903 C2.70967742,25.1612903 0,25.1612903 0,26.7096774 C0,28.2580645 4.25806452,28.2580645 4.25806452,28.2580645 L4.25806452,25.9354839 Z"></path>
                                <path d="M2.70967742,43.7419355 L2.70967742,46.8387097 C2.70967742,46.8387097 2.70967742,48 3.87096774,48 C5.03225806,48 7.35483871,48 7.35483871,48 C7.35483871,48 8.51612903,48 8.51612903,46.8387097 C8.51612903,45.6774194 8.51612903,44.516129 8.51612903,44.516129"></path>
                                <path d="M34.4516129,31.3548387 L30.1935484,33.2903226 L29.0322581,35.2258065 L31.3548387,36 L35.6129032,35.2258065 C35.6129032,35.2258065 36.8516129,35.2258065 36.3870968,32.9032258 C36,30.9677419 35.4580645,31.0064516 34.4516129,31.3548387 Z"></path>
                                <path d="M37.5483871,25.9354839 C37.5483871,25.9354839 37.5483871,25.1612903 38.3225806,25.1612903 C39.0967742,25.1612903 41.8064516,25.1612903 41.8064516,26.7096774 C41.8064516,28.2580645 37.5483871,28.2580645 37.5483871,28.2580645 L37.5483871,25.9354839 Z"></path>
                                <path d="M39.0967742,43.7419355 L39.0967742,46.8387097 C39.0967742,46.8387097 39.0967742,48 37.9354839,48 C36.7741935,48 34.4516129,48 34.4516129,48 C34.4516129,48 33.2903226,48 33.2903226,46.8387097 C33.2903226,45.6774194 33.2903226,44.516129 33.2903226,44.516129"></path>
                                <path d="M14.0129032,19.2 C12.5419355,19.3935484 11.0322581,19.7806452 10.4903226,20.4774194 C9.13548387,22.2967742 5.80645161,28.2580645 5.80645161,28.2580645 C5.80645161,28.2580645 3.48387097,28.2580645 3.48387097,30.1935484 C3.48387097,30.1935484 1.93548387,30.5806452 1.93548387,31.7419355 L1.93548387,41.4193548 C1.93548387,41.4193548 1.89677419,44.516129 4.64516129,44.516129 L37.1612903,44.516129 C39.9096774,44.516129 39.8709677,41.4193548 39.8709677,41.4193548 L39.8709677,31.7419355 C39.8709677,30.5806452 38.3225806,30.1935484 38.3225806,30.1935484 C38.3225806,28.2580645 36,28.2580645 36,28.2580645 C36,28.2580645 32.7483871,22.3354839 31.3935484,20.5548387 C30.8516129,19.8193548 29.3419355,19.4322581 27.8322581,19.2387097"></path>
                                <path d="M31.7419355,10.8387097 C31.7419355,4.83870968 26.9032258,0 20.9032258,0 C14.9032258,0 10.0645161,4.83870968 10.0645161,10.8387097 C10.0645161,15.9483871 13.6258065,20.2451613 18.3870968,21.3677419 L20.9032258,25.1612903 L23.4193548,21.3677419 C28.1806452,20.2451613 31.7419355,15.9483871 31.7419355,10.8387097 Z"></path>
                                <path d="M20.9032258,17.4193548 C15.0967742,17.4193548 15.0967742,9.67741935 15.0967742,9.67741935 L15.0967742,6.96774194 L20.9032258,4.64516129 L26.7096774,6.96774194 L26.7096774,9.67741935 C26.7096774,9.67741935 26.7096774,17.4193548 20.9032258,17.4193548 Z M20.9032258,5.03225806 L20.9032258,17.0322581 L20.9032258,5.03225806 Z" stroke-linecap="square"></path>
                            </g>
                        </g>
                    </g>
                </g>
            </g>
        </g>
    </g>
</svg>